<svg width="28" height="23" viewBox="0 0 28 23" fill="none" xmlns="http://www.w3.org/2000/svg">
<path d="M27.1114 2.61432C26.1143 3.05611 25.0433 3.35461 23.9174 3.48954C25.0791 2.79437 25.9483 1.70026 26.3627 0.411361C25.2712 1.0597 24.0766 1.51606 22.8308 1.7606C21.9931 0.86612 20.8834 0.273244 19.6742 0.07402C18.465 -0.125204 17.2238 0.0803692 16.1434 0.658824C15.063 1.23728 14.2038 2.15625 13.6991 3.27307C13.1945 4.38988 13.0727 5.64205 13.3527 6.83517C11.141 6.72412 8.97737 6.14927 7.00222 5.14791C5.02708 4.14656 3.28455 2.74108 1.88774 1.0227C1.41013 1.84657 1.13551 2.80178 1.13551 3.81909C1.13498 4.73489 1.3605 5.63667 1.79207 6.44441C2.22365 7.25215 2.84792 7.94088 3.60951 8.44948C2.72627 8.42138 1.86252 8.18272 1.09014 7.75337V7.82501C1.09005 9.10947 1.53435 10.3544 2.34766 11.3486C3.16096 12.3427 4.29317 13.0249 5.55218 13.2793C4.73283 13.501 3.87379 13.5337 3.03997 13.3748C3.39518 14.48 4.08712 15.4465 5.01889 16.1389C5.95067 16.8313 7.07565 17.215 8.23633 17.2363C6.266 18.783 3.83266 19.622 1.32775 19.6183C0.884028 19.6184 0.440683 19.5925 0 19.5407C2.54263 21.1755 5.50244 22.0432 8.52528 22.0398C18.758 22.0398 24.352 13.5647 24.352 6.21428C24.352 5.97548 24.346 5.73429 24.3353 5.49549C25.4234 4.7086 26.3626 3.73419 27.109 2.6179L27.1114 2.61432Z" fill="#797979"/>
</svg>
